<svg width="25" height="25" viewBox="0 0 25 25" fill="none" xmlns="http://www.w3.org/2000/svg">
<path d="M12.1981 2.88679C15.4173 2.88679 15.7985 2.89879 17.0703 2.9565C17.8349 2.96582 18.5923 3.10555 19.3094 3.36963C19.8295 3.56924 20.3018 3.87503 20.696 4.2673C21.0901 4.65957 21.3974 5.12963 21.598 5.64723C21.8633 6.36098 22.0037 7.11472 22.0131 7.8757C22.0705 9.14135 22.0831 9.52076 22.0831 12.7246C22.0831 15.9285 22.0711 16.3079 22.0131 17.5735C22.0037 18.3345 21.8633 19.0882 21.598 19.802C21.3974 20.3196 21.0901 20.7896 20.696 21.1819C20.3018 21.5742 19.8295 21.88 19.3094 22.0796C18.5923 22.3437 17.8349 22.4834 17.0703 22.4927C15.7991 22.5499 15.4179 22.5624 12.1981 22.5624C8.97829 22.5624 8.59706 22.5504 7.32591 22.4927C6.56128 22.4834 5.80392 22.3437 5.08675 22.0796C4.56667 21.88 4.09435 21.5742 3.70019 21.1819C3.30604 20.7896 2.99878 20.3196 2.79821 19.802C2.53287 19.0882 2.39246 18.3345 2.38311 17.5735C2.32569 16.3079 2.31306 15.9285 2.31306 12.7246C2.31306 9.52076 2.32512 9.14135 2.38311 7.8757C2.39246 7.11472 2.53287 6.36098 2.79821 5.64723C2.99878 5.12963 3.30604 4.65957 3.70019 4.2673C4.09435 3.87503 4.56667 3.56924 5.08675 3.36963C5.80392 3.10555 6.56128 2.96582 7.32591 2.9565C8.59764 2.89936 8.97887 2.88679 12.1981 2.88679ZM12.1981 0.724609C8.92547 0.724609 8.51324 0.738323 7.22715 0.796606C6.22645 0.816415 5.23637 1.00498 4.29902 1.35429C3.49493 1.6558 2.76663 2.12829 2.16493 2.7388C1.55094 3.33784 1.07578 4.06308 0.772633 4.86384C0.421648 5.79671 0.232173 6.78206 0.212269 7.77799C0.154855 9.05678 0.141075 9.46705 0.141075 12.724C0.141075 15.981 0.154855 16.3913 0.213417 17.6712C0.233322 18.6672 0.422796 19.6525 0.773781 20.5854C1.07659 21.386 1.55136 22.1113 2.16493 22.7104C2.76696 23.3211 3.49567 23.7936 4.30017 24.0949C5.23752 24.4442 6.2276 24.6328 7.2283 24.6526C8.51438 24.7098 8.9249 24.7246 12.1992 24.7246C15.4736 24.7246 15.8841 24.7109 17.1702 24.6526C18.1709 24.6328 19.161 24.4442 20.0983 24.0949C20.899 23.786 21.6261 23.3143 22.2331 22.7097C22.8401 22.1052 23.3137 21.3813 23.6235 20.5842C23.9745 19.6514 24.164 18.666 24.1839 17.6701C24.2413 16.3913 24.2551 15.981 24.2551 12.724C24.2551 9.46705 24.2413 9.05678 24.1828 7.77684C24.1629 6.78092 23.9734 5.79557 23.6224 4.8627C23.3196 4.06204 22.8448 3.33681 22.2312 2.73766C21.6292 2.12701 20.9005 1.65451 20.096 1.35315C19.1587 1.00384 18.1686 0.815272 17.1679 0.795463C15.8829 0.738323 15.4707 0.724609 12.1981 0.724609Z" fill="#131318"/>
<path d="M12.1959 6.5625C10.9713 6.5625 9.77425 6.92389 8.75606 7.60098C7.73786 8.27807 6.94427 9.24044 6.47565 10.3664C6.00702 11.4924 5.88441 12.7313 6.12331 13.9266C6.36221 15.1219 6.9519 16.2199 7.81781 17.0817C8.68371 17.9434 9.78694 18.5303 10.988 18.7681C12.189 19.0058 13.434 18.8838 14.5653 18.4174C15.6967 17.951 16.6637 17.1612 17.344 16.1479C18.0243 15.1346 18.3875 13.9432 18.3875 12.7245C18.3875 11.0902 17.7351 9.5229 16.574 8.36731C15.4129 7.21171 13.838 6.5625 12.1959 6.5625ZM12.1959 16.7243C11.401 16.7243 10.624 16.4897 9.96306 16.0502C9.30214 15.6107 8.78702 14.986 8.48283 14.2552C8.17864 13.5243 8.09905 12.7201 8.25412 11.9442C8.4092 11.1683 8.79197 10.4556 9.35404 9.8962C9.91611 9.33682 10.6322 8.95587 11.4118 8.80154C12.1914 8.6472 12.9995 8.72641 13.7339 9.02915C14.4683 9.33189 15.096 9.84455 15.5376 10.5023C15.9792 11.1601 16.2149 11.9334 16.2149 12.7245C16.2149 13.7853 15.7915 14.8027 15.0378 15.5528C14.2841 16.3029 13.2618 16.7243 12.1959 16.7243Z" fill="#131318"/>
<path d="M18.633 7.75877C19.432 7.75877 20.0798 7.11409 20.0798 6.31884C20.0798 5.52359 19.432 4.87891 18.633 4.87891C17.8339 4.87891 17.1861 5.52359 17.1861 6.31884C17.1861 7.11409 17.8339 7.75877 18.633 7.75877Z" fill="#131318"/>
</svg>
