<svg width="24" height="24" viewBox="0 0 24 24" fill="none" xmlns="http://www.w3.org/2000/svg">
<path fill-rule="evenodd" clip-rule="evenodd" d="M11.7883 0.724609C5.39696 0.724609 0.255066 5.84194 0.255066 12.2027C0.255066 17.2722 3.57086 21.5765 8.13609 23.107C8.71275 23.2026 8.90497 22.8678 8.90497 22.5331C8.90497 22.2461 8.90497 21.5287 8.90497 20.5722C5.68529 21.2896 5.01251 19.0418 5.01251 19.0418C4.48391 17.7027 3.71503 17.3679 3.71503 17.3679C2.65782 16.6505 3.81114 16.6505 3.81114 16.6505C4.96446 16.7462 5.58918 17.8462 5.58918 17.8462C6.59833 19.6157 8.28026 19.0896 8.95303 18.8027C9.04914 18.0375 9.33747 17.5592 9.67385 17.2722C7.12694 16.9853 4.43585 15.981 4.43585 11.581C4.43585 10.3375 4.86835 9.28538 5.63723 8.52017C5.54112 8.23322 5.10862 7.0854 5.73334 5.45934C5.73334 5.45934 6.69444 5.17238 8.90497 6.65497C9.81802 6.41585 10.8272 6.27237 11.7883 6.27237C12.7494 6.27237 13.7585 6.41585 14.6716 6.65497C16.8821 5.17238 17.8432 5.45934 17.8432 5.45934C18.4679 7.03758 18.0835 8.18539 17.9393 8.52017C18.6601 9.3332 19.1407 10.3375 19.1407 11.581C19.1407 15.981 16.4496 16.9375 13.8546 17.2244C14.2871 17.5592 14.6235 18.2766 14.6235 19.3287C14.6235 20.8592 14.6235 22.1026 14.6235 22.4852C14.6235 22.7722 14.8157 23.1548 15.4405 23.0591C20.0057 21.5765 23.3215 17.2722 23.3215 12.2027C23.3215 5.84194 18.1796 0.724609 11.7883 0.724609Z" fill="#131318"/>
</svg>
