<svg width="21" height="20" viewBox="0 0 21 20" fill="none" xmlns="http://www.w3.org/2000/svg">
<path d="M10.3334 5.625C10.1676 5.625 10.0086 5.55915 9.89143 5.44194C9.77422 5.32473 9.70837 5.16576 9.70837 5C9.70837 4.83424 9.77422 4.67527 9.89143 4.55806C10.0086 4.44085 10.1676 4.375 10.3334 4.375C10.4991 4.375 10.6581 4.44085 10.7753 4.55806C10.8925 4.67527 10.9584 4.83424 10.9584 5C10.9584 5.16576 10.8925 5.32473 10.7753 5.44194C10.6581 5.55915 10.4991 5.625 10.3334 5.625ZM10.3334 10.625C10.1676 10.625 10.0086 10.5592 9.89143 10.4419C9.77422 10.3247 9.70837 10.1658 9.70837 10C9.70837 9.83424 9.77422 9.67527 9.89143 9.55806C10.0086 9.44085 10.1676 9.375 10.3334 9.375C10.4991 9.375 10.6581 9.44085 10.7753 9.55806C10.8925 9.67527 10.9584 9.83424 10.9584 10C10.9584 10.1658 10.8925 10.3247 10.7753 10.4419C10.6581 10.5592 10.4991 10.625 10.3334 10.625ZM10.3334 15.625C10.1676 15.625 10.0086 15.5592 9.89143 15.4419C9.77422 15.3247 9.70837 15.1658 9.70837 15C9.70837 14.8342 9.77422 14.6753 9.89143 14.5581C10.0086 14.4408 10.1676 14.375 10.3334 14.375C10.4991 14.375 10.6581 14.4408 10.7753 14.5581C10.8925 14.6753 10.9584 14.8342 10.9584 15C10.9584 15.1658 10.8925 15.3247 10.7753 15.4419C10.6581 15.5592 10.4991 15.625 10.3334 15.625Z" stroke="#F3F3F3" stroke-width="1.5" stroke-linecap="round" stroke-linejoin="round"/>
</svg>
