<svg width="48" height="48" viewBox="0 0 48 48" fill="none" xmlns="http://www.w3.org/2000/svg">
<g clip-path="url(#clip0_0_230)">
<path d="M26.0267 10.0691L17.7884 4.6992H10.1722L1.93392 10.0681C0.728371 10.8543 0.00187683 12.1968 0.00187683 13.6356V43.7426C0.00187683 45.1043 0.639148 46.3161 1.63416 47.0953C2.35651 47.6616 3.26945 48 4.25929 48H23.7015C24.7146 48 25.6448 47.6474 26.3743 47.0568C27.3429 46.2766 27.9599 45.0821 27.9599 43.7426V13.6356C27.9599 12.1968 27.2325 10.8543 26.0267 10.0691ZM13.9809 14.4795C12.2676 14.4785 10.8785 13.0894 10.8785 11.3771C10.8795 9.66382 12.2686 8.27473 13.9809 8.27473C15.6932 8.27473 17.0823 9.66382 17.0833 11.3771C17.0833 13.0894 15.6942 14.4785 13.9809 14.4795Z" fill="url(#paint0_linear_0_230)"/>
<path d="M4.93411 22.8505C11.1857 22.8505 16.3335 18.1285 17.0076 12.0568C16.6975 13.4423 15.4605 14.4787 13.9809 14.4795C12.2676 14.4785 10.8785 13.0894 10.8785 11.3771C10.8795 9.66381 12.2686 8.27473 13.9809 8.27473C15.6173 8.27473 16.9576 9.54372 17.0742 11.1517C17.0796 11.0022 17.0833 10.8521 17.0833 10.7013C17.0833 8.51812 16.507 6.46974 15.4989 4.6991H10.1723L1.93402 10.068C0.728371 10.8543 0.00187683 12.1968 0.00187683 13.6356V21.8069C1.50917 22.4774 3.17797 22.8505 4.93411 22.8505Z" fill="url(#paint1_linear_0_230)"/>
<path d="M4.44583 19.7785V48H23.7015C24.7146 48 25.6448 47.6474 26.3743 47.0568C27.3429 46.2766 27.9599 45.0821 27.9599 43.7426V19.7785H4.44583Z" fill="url(#paint2_linear_0_230)"/>
<path d="M0.00187683 37.6662V43.7426C0.00187683 45.1043 0.639148 46.316 1.63416 47.0953C2.35651 47.6616 3.26945 48 4.25929 48H23.7015C24.7146 48 25.6448 47.6474 26.3743 47.0568C27.3429 46.2766 27.9599 45.0821 27.9599 43.7426V37.6662H0.00187683Z" fill="url(#paint3_linear_0_230)"/>
<path d="M46.751 24.3784L25.4619 3.08932C24.4447 2.07209 22.9818 1.63708 21.5734 1.93412L10.2192 4.32809C8.568 4.67557 7.27887 5.9647 6.93138 7.6159L4.5375 18.9699C4.24047 20.3784 4.67548 21.8412 5.6927 22.8584L26.9817 44.1475C27.9446 45.1103 29.2522 45.5161 30.5069 45.3637C31.4181 45.2536 32.3027 44.8478 33.0029 44.1475L46.7509 30.3995C47.467 29.6834 47.8756 28.7762 47.9736 27.8425C48.1063 26.6065 47.6979 25.3254 46.751 24.3784ZM16.1741 13.5707C14.9619 14.7816 12.9977 14.7816 11.7868 13.5707C10.576 12.3585 10.576 10.3944 11.7868 9.18343C12.9977 7.97261 14.9619 7.97261 16.1741 9.18343C17.3849 10.3944 17.3849 12.3586 16.1741 13.5707Z" fill="url(#paint4_linear_0_230)"/>
<path d="M15.0407 14.289V32.2063L5.69299 22.8586C4.67576 21.8414 4.24009 20.3784 4.53798 18.97L5.81355 12.9172H11.2878C11.4205 13.1512 11.5878 13.3711 11.7873 13.5706C12.6668 14.4502 13.9434 14.6872 15.0407 14.289Z" fill="url(#paint5_linear_0_230)"/>
<path d="M47.9737 27.8425C47.8756 28.7762 47.4671 29.6834 46.751 30.3995L33.0029 44.1476C32.3027 44.8478 31.4181 45.2536 30.5069 45.3638L21.7523 36.6091C21.2363 36.3213 20.93 35.7776 20.93 35.2749C20.93 35.1012 20.9883 34.8969 21.0759 34.7232L31.2801 13.7617C31.5122 13.267 31.9777 13.0349 32.5002 13.0349C33.101 13.0349 33.7482 13.3678 34.0467 13.9156L47.9737 27.8425Z" fill="url(#paint6_linear_0_230)"/>
<path d="M42.9817 34.1688L34.7921 42.3585L17.812 25.3784C16.9858 24.7616 16.4818 23.7643 16.4818 22.2802V18.1515C16.4818 15.2736 18.3717 14.2271 20.8424 14.2271C22.3889 14.2271 23.7244 14.6475 24.4976 15.6847L42.9817 34.1688Z" fill="url(#paint7_linear_0_230)"/>
<path d="M44.9751 32.1754L36.7854 40.3651L31.1316 34.7099C30.3053 34.0932 29.8013 33.0972 29.8013 31.6118V27.4831C29.8013 24.6051 31.6912 23.5587 34.1621 23.5587C35.7085 23.5587 37.044 23.9791 37.8159 25.0176L44.9751 32.1754Z" fill="url(#paint8_linear_0_230)"/>
<path d="M16.3643 22.1619V18.0336C16.3643 15.1555 18.254 14.1089 20.7251 14.1089C23.1672 14.1089 25.086 15.1555 25.086 18.0336V22.1619C25.086 25.04 23.1672 26.0866 20.7251 26.0866C18.254 26.0866 16.3643 25.04 16.3643 22.1619ZM22.1787 18.0336C22.1787 17.0743 21.6263 16.6381 20.7251 16.6381C19.8239 16.6381 19.3006 17.0743 19.3006 18.0336V22.1619C19.3006 23.1212 19.8238 23.5574 20.7251 23.5574C21.6264 23.5574 22.1787 23.1212 22.1787 22.1619V18.0336ZM34.0983 14.4578C34.0983 14.6323 34.0692 14.8358 33.9819 15.0103L23.7486 35.9712C23.5451 36.4073 22.9928 36.698 22.4404 36.698C21.452 36.698 20.8122 35.884 20.8122 35.1572C20.8122 34.9828 20.8705 34.7792 20.9576 34.6048L31.1619 13.6439C31.3945 13.1496 31.8597 12.917 32.383 12.917C33.197 12.9169 34.0983 13.5274 34.0983 14.4578ZM29.7084 31.523V27.3948C29.7084 24.5167 31.5981 23.4701 34.0692 23.4701C36.5112 23.4701 38.4299 24.5167 38.4299 27.3948V31.523C38.4299 34.4012 36.5112 35.4478 34.0692 35.4478C31.5981 35.4478 29.7084 34.4012 29.7084 31.523ZM35.5227 27.3948C35.5227 26.4355 34.9704 25.9993 34.0692 25.9993C33.168 25.9993 32.6446 26.4355 32.6446 27.3948V31.523C32.6446 32.4824 33.168 32.9185 34.0692 32.9185C34.9704 32.9185 35.5227 32.4824 35.5227 31.523V27.3948Z" fill="url(#paint9_linear_0_230)"/>
<path d="M16.1745 9.18353C15.5372 8.54824 14.6942 8.24631 13.8603 8.27878C13.5614 9.92621 12.4338 11.287 10.9261 11.9131C10.3526 12.1512 9.72347 12.2829 9.0639 12.2829C7.9727 12.2829 6.96357 11.9223 6.15096 11.3153C4.96046 10.4247 4.18841 9.00424 4.18841 7.40744C4.18841 4.71944 6.37486 2.53299 9.0639 2.53299C10.3588 2.53299 11.5361 3.03962 12.4095 3.86635L15.21 3.27567C13.8775 1.30089 11.6191 0 9.0639 0C4.97863 0 1.65543 3.32226 1.65543 7.40744C1.65543 10.2403 3.25326 12.7075 5.59576 13.9527C6.63124 14.5038 7.81157 14.8159 9.0639 14.8159C10.2544 14.8159 11.38 14.5332 12.377 14.0317C14.2696 13.0824 15.7014 11.3437 16.2383 9.25148C16.218 9.22814 16.1967 9.20584 16.1745 9.18353Z" fill="url(#paint10_linear_0_230)"/>
<path d="M13.8603 8.27878C13.5614 9.92622 12.4338 11.287 10.9261 11.9131C10.3527 12.1513 9.72348 12.2829 9.0639 12.2829C8.79943 12.2829 8.53995 12.2614 8.28677 12.2206V14.7747C8.5423 14.8014 8.80141 14.8159 9.0639 14.8159C10.2544 14.8159 11.38 14.5332 12.377 14.0317C14.2696 13.0824 15.7014 11.3437 16.2383 9.25149C16.2181 9.22814 16.1968 9.20584 16.1745 9.18363C15.5371 8.54833 14.6942 8.2464 13.8603 8.27878Z" fill="url(#paint11_linear_0_230)"/>
<path d="M9.0639 0C8.80141 0 8.5423 0.0142118 8.28677 0.0409412V2.59558C8.53995 2.55492 8.79934 2.53299 9.0639 2.53299C10.3588 2.53299 11.5361 3.03962 12.4095 3.86635L15.21 3.27567C13.8776 1.30089 11.6191 0 9.0639 0Z" fill="url(#paint12_linear_0_230)"/>
</g>
<defs>
<linearGradient id="paint0_linear_0_230" x1="2.09355" y1="16.8024" x2="29.2369" y2="43.9457" gradientUnits="userSpaceOnUse">
<stop stop-color="#FEE45A"/>
<stop offset="1" stop-color="#FEA613"/>
</linearGradient>
<linearGradient id="paint1_linear_0_230" x1="2.97901" y1="20.2089" x2="13.3135" y2="7.94936" gradientUnits="userSpaceOnUse">
<stop stop-color="#FEA613" stop-opacity="0"/>
<stop offset="1" stop-color="#E94444"/>
</linearGradient>
<linearGradient id="paint2_linear_0_230" x1="8.88254" y1="36.6458" x2="19.1158" y2="31.6812" gradientUnits="userSpaceOnUse">
<stop stop-color="#FEA613" stop-opacity="0"/>
<stop offset="1" stop-color="#E94444"/>
</linearGradient>
<linearGradient id="paint3_linear_0_230" x1="13.9809" y1="43.7405" x2="13.9809" y2="48.8105" gradientUnits="userSpaceOnUse">
<stop stop-color="#FEA613" stop-opacity="0"/>
<stop offset="1" stop-color="#E94444"/>
</linearGradient>
<linearGradient id="paint4_linear_0_230" x1="9.33138" y1="6.728" x2="49.8996" y2="47.2962" gradientUnits="userSpaceOnUse">
<stop stop-color="#8AC9FE"/>
<stop offset="1" stop-color="#814AA0"/>
</linearGradient>
<linearGradient id="paint5_linear_0_230" x1="11.2056" y1="19.818" x2="3.47285" y2="12.9024" gradientUnits="userSpaceOnUse">
<stop stop-color="#5B3374" stop-opacity="0"/>
<stop offset="1" stop-color="#5B3374"/>
</linearGradient>
<linearGradient id="paint6_linear_0_230" x1="38.444" y1="32.5516" x2="21.5343" y2="24.1299" gradientUnits="userSpaceOnUse">
<stop stop-color="#5B3374" stop-opacity="0"/>
<stop offset="1" stop-color="#5B3374"/>
</linearGradient>
<linearGradient id="paint7_linear_0_230" x1="26.0274" y1="27.0744" x2="14.6905" y2="21.5869" gradientUnits="userSpaceOnUse">
<stop stop-color="#5B3374" stop-opacity="0"/>
<stop offset="1" stop-color="#5B3374"/>
</linearGradient>
<linearGradient id="paint8_linear_0_230" x1="42.7475" y1="35.1289" x2="28.4903" y2="28.2325" gradientUnits="userSpaceOnUse">
<stop stop-color="#5B3374" stop-opacity="0"/>
<stop offset="1" stop-color="#5B3374"/>
</linearGradient>
<linearGradient id="paint9_linear_0_230" x1="16.3643" y1="24.8074" x2="25.086" y2="24.8074" gradientUnits="userSpaceOnUse">
<stop stop-color="#EAF6FF"/>
<stop offset="1" stop-color="#B3DAFE"/>
</linearGradient>
<linearGradient id="paint10_linear_0_230" x1="3.43679" y1="1.78099" x2="12.2045" y2="10.5488" gradientUnits="userSpaceOnUse">
<stop stop-color="#B3DAFE"/>
<stop offset="1" stop-color="#4FC123"/>
</linearGradient>
<linearGradient id="paint11_linear_0_230" x1="12.2041" y1="11.5208" x2="15.4524" y2="8.27257" gradientUnits="userSpaceOnUse">
<stop stop-color="#4FC123" stop-opacity="0"/>
<stop offset="1" stop-color="#017B4E"/>
</linearGradient>
<linearGradient id="paint12_linear_0_230" x1="10.3824" y1="0.905224" x2="12.8817" y2="4.62033" gradientUnits="userSpaceOnUse">
<stop stop-color="#4FC123" stop-opacity="0"/>
<stop offset="1" stop-color="#017B4E"/>
</linearGradient>
<clipPath id="clip0_0_230">
<rect width="48" height="48" fill="white"/>
</clipPath>
</defs>
</svg>
