<svg width="21" height="20" viewBox="0 0 21 20" fill="none" xmlns="http://www.w3.org/2000/svg">
<path d="M6.99999 2.5H4.49999C4.05797 2.5 3.63404 2.67559 3.32148 2.98816C3.00892 3.30072 2.83333 3.72464 2.83333 4.16667V6.66667M17.8333 6.66667V4.16667C17.8333 3.72464 17.6577 3.30072 17.3452 2.98816C17.0326 2.67559 16.6087 2.5 16.1667 2.5H13.6667M13.6667 17.5H16.1667C16.6087 17.5 17.0326 17.3244 17.3452 17.0118C17.6577 16.6993 17.8333 16.2754 17.8333 15.8333V13.3333M2.83333 13.3333V15.8333C2.83333 16.2754 3.00892 16.6993 3.32148 17.0118C3.63404 17.3244 4.05797 17.5 4.49999 17.5H6.99999" stroke="#F3F3F3" stroke-width="1.5" stroke-linecap="round" stroke-linejoin="round"/>
</svg>
